<svg xmlns="http://www.w3.org/2000/svg" viewBox="0 0 225 111">
  <path fill="#FBEC5F" d="M86.6 108.3c-1.4-.4-14.2-.1-14.2-.1l-.2-23.4-.1-37.5-.1-8.2s-.4-5.2-.4-7.1h16s.1 3.5.1 4c0 .4.2 1 1 1 .6-.1.9-.6 1.5-1.2.7-.7 1.7-1.3 2.1-1.6.8-.4 3.2-2.1 7.9-2 2.8.1 5.7.8 8.3 2.1v.1c2.7 1.3 5.3 3.3 7.2 5.9 3.8 5.1 6.6 13.1 6.6 17.9.2 7.9-2.5 15.7-8.4 19.7-1 .7-2.2 1.3-3.3 1.9v.1c-3.6 1.8-7.5 3.1-10.2 3.1-3.6.1-7.2-1.2-8-1.5-.8-.3-2.5-1.3-3.7-1.2-.6 0-1.4.7-1.4 1.8 0 1.5-.2 13.1-.2 14.2 0 1.1-.3 10.4-.5 12z"/>
  <path d="M43.3 32.1s12.2.4 13.8.2c0 4 .1 11.1.1 11.5v25.8c0 1-.5 14.1-.5 14.1s-8.5-.2-13.6 0c0-1.3-.2-28.2-.2-28.2l.4-23.4zm-.9-16c0 1.7.4 3.4 1.4 4.6 1.6 1.9 4.3 3 7.1 3 1.8 0 3.2-.7 4.3-1.3 2.1-1.2 3.2-3.1 3.2-5.9 0-4.4-2.9-7.9-8-8-2 0-4.1.6-5.5 1.7-1.5 1.4-2.1 3.5-2.5 5.9z" fill="#ACA81B"/>
  <path fill="#E88EBA" d="M1.3 57.1c0 14.5 8.2 27 24.4 26.8 4 .1 7.6-.5 10.6-1.9 8.9-4.4 13.3-14.8 13.7-24.7 0-14.5-9.7-25.4-24.2-25.4-7.5 0-13.6 2.3-17.8 6.8-4.4 4.4-6.7 11.2-6.7 18.4z"/>
  <path fill="#1D609C" d="M146.3 57.3c0 14.7-2.8 27.2-19.4 27.4-14.5 0-24.8-8-27.5-28-1.6-15.1 6.7-25.7 21.2-25.7 17.6.1 25.7 11.6 25.7 26.3z"/>
  <path fill="#F2933A" d="M214.2 57.5c-.2 10.8-3.4 16.7-8.2 20.6-4.2 3.5-10 6.4-13.3 6.5-7.9 0-12.7-1.5-19.6-8.3-3.9-4.1-6.1-9-7.4-18.1-1.2-15 6.8-26.2 21.3-26.2 17.7.2 27.2 10.8 27.2 25.5z"/>
  <path fill="#7B1842" d="M142.1 2.6s12 .3 14.6-.1c.3.7.9 25.2 1 31.7 0 6.8-.3 23.7-.3 26 0 2.2-.4 16-.9 23.3-1.9-.3-14.9 0-14.9 0s-.4-18.3-.5-23.3c-.1-4 .8-33.9.8-33.9s-.1-12.3-.1-14.4.3-9.3.3-9.3z"/>
  <path fill="#AD631F" d="M171.7 2.4l-15 .1v.3c0 2.8.3 31 .3 32.1-.1 1.9-.2 22-.2 23.6 0 1.6-.6 24.9-.6 24.9h.2c1.6 0 12.1-.2 14.4 0 .2-2.1.9-11 1-13.6.2-3.5 1-21 .9-24.1s-.4-24.3-.5-26.1c-.2-1.7-.5-17.2-.5-17.2z"/>
  <path fill="#AAA773" d="M208 32.5s12.2.8 13.6.3c.8 6.7.5 15.3.5 16.9 0 1.6-.4 17.4-.5 18.6-.1 1.2-.6 15.9-.6 15.9s-11.3 0-13.3.1c-.3-2.7-.2-16.3-.2-16.3V51.3l.3-12.4.2-6.4zm6.7-21.4c-4.5 0-7.8 3.7-7.8 8.1.1 5.8 5.7 7.9 10.1 7.9 4.5 0 6.7-3.5 6.7-7.9s-4.6-8.1-9-8.1z"/>
  <path fill="#A35124" d="M43.2 39.1l-.3 16.3s.1 12.4.1 20.8c4.3-5.1 6.6-12.1 6.9-18.9 0-7.3-2.4-13.6-6.7-18.2z"/>
  <path fill="#2F654C" d="M115.8 40.2c-1.9-2.6-4.5-4.6-7.2-5.9-6.8 4.2-10.3 12.3-9.2 22.5 1.5 11.2 5.5 18.7 11.2 23.1 1.2-.6 2.4-1.2 3.4-1.9 5.9-4.1 8.6-11.8 8.4-19.7 0-5-2.8-13-6.6-18.1z"/>
  <path fill="#211B39" d="M141.4 40.5c-.2 8.3-.4 17.6-.4 19.7.1 3.3.3 12.5.4 18.3 3.9-5.1 4.8-12.8 4.8-21.2.1-6.5-1.5-12.3-4.8-16.8z"/>
  <path fill="#4F1A1F" d="M156.9 34.9c-.1 1.9-.2 22-.2 23.6 0 1.6-.5 24.2-.6 24.9h.3c.5-7.3.8-21 .9-23.3 0-2.2.4-19.1.3-26 0-6.5-.6-31-1-31.7.1.1.3 31.3.3 32.5z"/>
  <path fill="#A2391E" d="M165.8 58.3c1 7.6 2.8 12.3 5.7 16.1.1-1.9.2-3.6.3-4.5.2-3.5 1-21 .9-24.1 0-1.1-.1-4.3-.2-8.2-5 4.7-7.4 12.1-6.7 20.7z"/>
  <path fill="#9D6616" d="M214.2 57.5c0-7.1-2.2-13.2-6.5-17.6l-.3 11.4v25.6c4.1-4 6.7-9.7 6.8-19.4z"/>
</svg>
